<svg width="16" height="17" viewBox="0 0 16 17" fill="none" xmlns="http://www.w3.org/2000/svg">
<path d="M11.6004 16.2715V13.8715H9.20039V12.2715H11.6004V9.87148H13.2004V12.2715H15.6004V13.8715H13.2004V16.2715H11.6004ZM2.00039 14.6715C1.56039 14.6715 1.18372 14.5148 0.870391 14.2015C0.557057 13.8882 0.400391 13.5115 0.400391 13.0715V3.47148C0.400391 3.03148 0.557057 2.65482 0.870391 2.34148C1.18372 2.02815 1.56039 1.87148 2.00039 1.87148H2.80039V0.271484H4.40039V1.87148H9.20039V0.271484H10.8004V1.87148H11.6004C12.0404 1.87148 12.4171 2.02815 12.7304 2.34148C13.0437 2.65482 13.2004 3.03148 13.2004 3.47148V8.35149C12.9337 8.31148 12.6671 8.29148 12.4004 8.29148C12.1337 8.29148 11.8671 8.31148 11.6004 8.35149V6.67148H2.00039V13.0715H7.60039C7.60039 13.3382 7.62039 13.6048 7.66039 13.8715C7.70039 14.1382 7.77372 14.4048 7.88039 14.6715H2.00039Z" fill="#2075F6"/>
</svg>
