<svg width="12" height="13" viewBox="0 0 12 13" fill="none" xmlns="http://www.w3.org/2000/svg">
<path d="M11.3 12.2715C9.91111 12.2715 8.53889 11.9687 7.18333 11.3632C5.82778 10.7576 4.59444 9.89926 3.48333 8.78815C2.37222 7.67704 1.51389 6.44371 0.908333 5.08815C0.302778 3.7326 0 2.36037 0 0.971484C0 0.771484 0.0666667 0.604818 0.2 0.471484C0.333333 0.338151 0.5 0.271484 0.7 0.271484H3.4C3.55556 0.271484 3.69444 0.324262 3.81667 0.429818C3.93889 0.535373 4.01111 0.660373 4.03333 0.804818L4.46667 3.13815C4.48889 3.31593 4.48333 3.46593 4.45 3.58815C4.41667 3.71037 4.35556 3.81593 4.26667 3.90482L2.65 5.53815C2.87222 5.94926 3.13611 6.34648 3.44167 6.72982C3.74722 7.11315 4.08333 7.4826 4.45 7.83815C4.79444 8.1826 5.15556 8.50204 5.53333 8.79648C5.91111 9.09093 6.31111 9.36037 6.73333 9.60482L8.3 8.03815C8.4 7.93815 8.53056 7.86315 8.69167 7.81315C8.85278 7.76315 9.01111 7.74926 9.16667 7.77148L11.4667 8.23815C11.6222 8.2826 11.75 8.36315 11.85 8.47982C11.95 8.59648 12 8.72704 12 8.87148V11.5715C12 11.7715 11.9333 11.9382 11.8 12.0715C11.6667 12.2048 11.5 12.2715 11.3 12.2715Z" fill="#2075F6"/>
</svg>
