<svg width="16" height="16" viewBox="0 0 16 16" fill="none" xmlns="http://www.w3.org/2000/svg">
<path d="M2.16667 15.7715C1.70833 15.7715 1.31597 15.6083 0.989583 15.2819C0.663194 14.9555 0.5 14.5632 0.5 14.1048V2.43815C0.5 1.97982 0.663194 1.58746 0.989583 1.26107C1.31597 0.934679 1.70833 0.771484 2.16667 0.771484H9.66667V4.93815H11.3333V6.60482H15.5V14.1048C15.5 14.5632 15.3368 14.9555 15.0104 15.2819C14.684 15.6083 14.2917 15.7715 13.8333 15.7715H2.16667ZM3 12.4382H13L9.875 8.27148L7.375 11.6048L5.5 9.10482L3 12.4382ZM12.1667 5.77148V4.10482H10.5V2.43815H12.1667V0.771484H13.8333V2.43815H15.5V4.10482H13.8333V5.77148H12.1667Z" fill="#BFBFBF"/>
</svg>
