<svg width="16" height="13" viewBox="0 0 16 13" fill="none" xmlns="http://www.w3.org/2000/svg">
<path d="M2 12.2715C1.5875 12.2715 1.23438 12.1246 0.940625 11.8309C0.646875 11.5371 0.5 11.184 0.5 10.7715V1.77148C0.5 1.35898 0.646875 1.00586 0.940625 0.712109C1.23438 0.418359 1.5875 0.271484 2 0.271484H11C11.4125 0.271484 11.7656 0.418359 12.0594 0.712109C12.3531 1.00586 12.5 1.35898 12.5 1.77148V5.14648L15.5 2.14648V10.3965L12.5 7.39648V10.7715C12.5 11.184 12.3531 11.5371 12.0594 11.8309C11.7656 12.1246 11.4125 12.2715 11 12.2715H2Z" fill="#2075F6"/>
</svg>
