<svg width="10" height="12" viewBox="0 0 10 12" fill="none" xmlns="http://www.w3.org/2000/svg">
<path d="M3.5 0C4.33 0 5.11 0.1575 5.84 0.4725C6.57 0.7875 7.205 1.215 7.745 1.755C8.285 2.295 8.7125 2.93 9.0275 3.66C9.3425 4.39 9.5 5.17 9.5 6C9.5 6.83 9.3425 7.61 9.0275 8.34C8.7125 9.07 8.285 9.705 7.745 10.245C7.205 10.785 6.57 11.2125 5.84 11.5275C5.11 11.8425 4.33 12 3.5 12C2.97 12 2.4525 11.9325 1.9475 11.7975C1.4425 11.6625 0.96 11.46 0.5 11.19C1.43 10.65 2.1625 9.92 2.6975 9C3.2325 8.08 3.5 7.08 3.5 6C3.5 4.92 3.2325 3.92 2.6975 3C2.1625 2.08 1.43 1.35 0.5 0.81C0.96 0.54 1.4425 0.3375 1.9475 0.2025C2.4525 0.0675 2.97 0 3.5 0Z" fill="#2075F6"/>
</svg>
