<svg width="8" height="9" viewBox="0 0 8 9" fill="none" xmlns="http://www.w3.org/2000/svg">
<path d="M4.36494 8.67313C3.92252 8.67313 3.56949 8.48828 3.30585 8.11858C3.04221 7.74888 2.9104 7.32767 2.9104 6.85494C2.9104 6.38222 3.04221 5.96101 3.30585 5.59131C3.56949 5.22161 3.92252 5.03676 4.36494 5.03676C4.80737 5.03676 5.1604 5.22161 5.42403 5.59131C5.68767 5.96101 5.81949 6.38222 5.81949 6.85494C5.81949 7.32767 5.68767 7.74888 5.42403 8.11858C5.1604 8.48828 4.80737 8.67313 4.36494 8.67313ZM1.25585 8.41858L0.564941 8.2004C0.75282 7.6307 0.887669 7.0504 0.969487 6.45949C1.05131 5.86858 1.09221 5.27313 1.09221 4.67313C1.09221 4.07313 1.05131 3.47767 0.969487 2.88676C0.887669 2.29585 0.75282 1.71555 0.564941 1.14585L1.25585 0.927672C1.45585 1.53373 1.59979 2.14888 1.68767 2.77313C1.77555 3.39737 1.81949 4.0307 1.81949 4.67313C1.81949 5.31555 1.77555 5.94888 1.68767 6.57313C1.59979 7.19737 1.45585 7.81252 1.25585 8.41858ZM6.74676 8.41858C6.54676 7.81252 6.40282 7.19737 6.31494 6.57313C6.22706 5.94888 6.18312 5.31555 6.18312 4.67313C6.18312 4.0307 6.22706 3.39737 6.31494 2.77313C6.40282 2.14888 6.54676 1.53373 6.74676 0.927672L7.43767 1.14585C7.24979 1.71555 7.11494 2.29585 7.03312 2.88676C6.9513 3.47767 6.9104 4.07313 6.9104 4.67313C6.9104 5.27313 6.9513 5.86858 7.03312 6.45949C7.11494 7.0504 7.24979 7.6307 7.43767 8.2004L6.74676 8.41858ZM4.36494 7.94585C4.60737 7.94585 4.78918 7.83222 4.9104 7.60494C5.03161 7.37767 5.09221 7.12767 5.09221 6.85494C5.09221 6.58222 5.03161 6.33222 4.9104 6.10494C4.78918 5.87767 4.60737 5.76404 4.36494 5.76404C4.12252 5.76404 3.9407 5.87767 3.81949 6.10494C3.69827 6.33222 3.63767 6.58222 3.63767 6.85494C3.63767 7.12767 3.69827 7.37767 3.81949 7.60494C3.9407 7.83222 4.12252 7.94585 4.36494 7.94585ZM4.08312 7.50949C4.13767 7.55798 4.2013 7.58222 4.27403 7.58222C4.34676 7.58222 4.4104 7.55494 4.46494 7.5004C4.54979 7.41555 4.61494 7.31707 4.6604 7.20494C4.70585 7.09282 4.72858 6.97616 4.72858 6.85494C4.72858 6.73373 4.70737 6.61707 4.66494 6.50494C4.62252 6.39282 4.55888 6.29434 4.47403 6.20949C4.42555 6.15494 4.36343 6.12767 4.28767 6.12767C4.21191 6.12767 4.14676 6.15191 4.09221 6.2004C4.03767 6.24888 4.00888 6.31252 4.00585 6.39131C4.00282 6.4701 4.02555 6.53676 4.07403 6.59131L4.12858 6.66858C4.16494 6.7201 4.18312 6.78222 4.18312 6.85494C4.18312 6.92767 4.16494 6.98979 4.12858 7.04131L4.07403 7.11858C4.01949 7.17313 3.99373 7.23979 3.99676 7.31858C3.99979 7.39737 4.02858 7.46101 4.08312 7.50949ZM3.63767 4.30949C3.19524 4.30949 2.84221 4.12464 2.57858 3.75494C2.31494 3.38525 2.18312 2.96404 2.18312 2.49131C2.18312 2.01858 2.31494 1.59737 2.57858 1.22767C2.84221 0.857975 3.19524 0.673126 3.63767 0.673126C4.08009 0.673126 4.43312 0.857975 4.69676 1.22767C4.9604 1.59737 5.09221 2.01858 5.09221 2.49131C5.09221 2.96404 4.9604 3.38525 4.69676 3.75494C4.43312 4.12464 4.08009 4.30949 3.63767 4.30949ZM3.63767 3.58222C3.88009 3.58222 4.06191 3.46858 4.18312 3.24131C4.30434 3.01404 4.36494 2.76404 4.36494 2.49131C4.36494 2.21858 4.30434 1.96858 4.18312 1.74131C4.06191 1.51404 3.88009 1.4004 3.63767 1.4004C3.39524 1.4004 3.21343 1.51404 3.09221 1.74131C2.971 1.96858 2.9104 2.21858 2.9104 2.49131C2.9104 2.76404 2.971 3.01404 3.09221 3.24131C3.21343 3.46858 3.39524 3.58222 3.63767 3.58222ZM3.9104 3.14585C3.96494 3.09737 3.99373 3.03373 3.99676 2.95494C3.99979 2.87616 3.97706 2.80949 3.92858 2.75494C3.89827 2.71858 3.87252 2.67767 3.85131 2.63222C3.83009 2.58676 3.81949 2.53979 3.81949 2.49131C3.81949 2.44282 3.83009 2.39585 3.85131 2.3504C3.87252 2.30494 3.89827 2.26404 3.92858 2.22767C3.97706 2.17313 4.0013 2.10797 4.0013 2.03222C4.0013 1.95646 3.97403 1.89131 3.91949 1.83676C3.86494 1.78828 3.8013 1.76404 3.72858 1.76404C3.65585 1.76404 3.59221 1.79131 3.53767 1.84585C3.45282 1.9307 3.38767 2.02919 3.34221 2.14131C3.29676 2.25343 3.27403 2.3701 3.27403 2.49131C3.27403 2.61252 3.29524 2.72919 3.33767 2.84131C3.38009 2.95343 3.44373 3.05191 3.52858 3.13676C3.58312 3.19131 3.64676 3.21858 3.71949 3.21858C3.79221 3.21858 3.85585 3.19434 3.9104 3.14585Z" fill="#2075F6"/>
</svg>
