<svg width="10" height="9" viewBox="0 0 10 9" fill="none" xmlns="http://www.w3.org/2000/svg">
<path d="M7.52752 3.19944C7.40823 3.19944 7.30823 3.15909 7.22752 3.07839C7.14682 2.99769 7.10647 2.89769 7.10647 2.77839C7.10647 2.72225 7.11875 2.66786 7.14331 2.61523C7.16787 2.5626 7.1977 2.51874 7.23279 2.48365C7.317 2.39944 7.50998 2.30471 7.81173 2.19944L8.26437 2.04155C8.20823 2.20295 8.15559 2.35383 8.10647 2.49418C8.06437 2.61348 8.017 2.72927 7.96437 2.84155C7.91173 2.95383 7.86437 3.03102 7.82226 3.07313C7.78717 3.10821 7.74331 3.13804 7.69068 3.1626C7.63805 3.18716 7.58366 3.19944 7.52752 3.19944ZM1.21173 8.67313C0.980155 8.67313 0.78191 8.59067 0.616997 8.42576C0.452085 8.26085 0.369629 8.0626 0.369629 7.83102V1.93628C0.369629 1.70471 0.452085 1.50646 0.616997 1.34155C0.78191 1.17663 0.980155 1.09418 1.21173 1.09418H3.73805C3.96963 1.09418 4.16787 1.17663 4.33279 1.34155C4.4977 1.50646 4.58016 1.70471 4.58016 1.93628V5.37839C4.64331 5.35734 4.70998 5.33979 4.78016 5.32576C4.85033 5.31172 4.92402 5.30471 5.00121 5.30471C5.35209 5.30471 5.65033 5.42751 5.89594 5.67313C6.14156 5.91874 6.26437 6.21699 6.26437 6.56786V7.40997C6.26437 7.52927 6.30472 7.62927 6.38542 7.70997C6.46612 7.79067 6.56612 7.83102 6.68542 7.83102C6.80472 7.83102 6.90472 7.79067 6.98542 7.70997C7.06612 7.62927 7.10647 7.52927 7.10647 7.40997V5.30471H6.68542V4.70471C6.30647 4.5433 6.00121 4.29067 5.76963 3.94681C5.53805 3.60295 5.42226 3.21348 5.42226 2.77839C5.42226 2.19593 5.62752 1.69944 6.03805 1.28892C6.44858 0.878389 6.94507 0.673126 7.52752 0.673126C8.10998 0.673126 8.60647 0.878389 9.017 1.28892C9.42752 1.69944 9.63279 2.19593 9.63279 2.77839C9.63279 3.21348 9.517 3.60295 9.28542 3.94681C9.05384 4.29067 8.74858 4.5433 8.36963 4.70471V5.30471H7.94858V7.40997C7.94858 7.76085 7.82577 8.05909 7.58016 8.30471C7.33454 8.55032 7.0363 8.67313 6.68542 8.67313C6.33454 8.67313 6.0363 8.55032 5.79068 8.30471C5.54507 8.05909 5.42226 7.76085 5.42226 7.40997V6.56786C5.42226 6.44857 5.38191 6.34857 5.30121 6.26786C5.22051 6.18716 5.12051 6.14681 5.00121 6.14681C4.88191 6.14681 4.78191 6.18716 4.70121 6.26786C4.62051 6.34857 4.58016 6.44857 4.58016 6.56786V7.83102C4.58016 8.0626 4.4977 8.26085 4.33279 8.42576C4.16787 8.59067 3.96963 8.67313 3.73805 8.67313H1.21173ZM7.52752 4.04155C7.8784 4.04155 8.17665 3.91874 8.42226 3.67313C8.66787 3.42751 8.79068 3.12927 8.79068 2.77839C8.79068 2.42751 8.66787 2.12927 8.42226 1.88365C8.17665 1.63804 7.8784 1.51523 7.52752 1.51523C7.17665 1.51523 6.8784 1.63804 6.63279 1.88365C6.38717 2.12927 6.26437 2.42751 6.26437 2.77839C6.26437 3.12927 6.38717 3.42751 6.63279 3.67313C6.8784 3.91874 7.17665 4.04155 7.52752 4.04155ZM1.21173 7.83102H3.73805V6.98892L2.89594 7.83102V6.64155L3.73805 5.79944V4.88365L2.89594 5.72576V4.53628L3.73805 3.69418V2.77839L2.89594 3.62049V2.43102L3.39068 1.93628H1.5591L2.05384 2.43102V3.62049L1.21173 2.77839V3.69418L2.05384 4.53628V5.72576L1.21173 4.88365V5.79944L2.05384 6.64155V7.83102L1.21173 6.98892V7.83102Z" fill="#2075F6"/>
</svg>
