<svg width="10" height="9" viewBox="0 0 10 9" fill="none" xmlns="http://www.w3.org/2000/svg">
<path d="M0.460693 2.83529V1.53799C0.460693 1.30015 0.545378 1.09655 0.714747 0.92718C0.884117 0.757811 1.08772 0.673126 1.32556 0.673126H8.24448C8.48232 0.673126 8.68592 0.757811 8.85529 0.92718C9.02466 1.09655 9.10934 1.30015 9.10934 1.53799V4.13259H8.24448V1.53799H1.32556V2.83529H0.460693ZM1.32556 7.59205C1.08772 7.59205 0.884117 7.50736 0.714747 7.33799C0.545378 7.16862 0.460693 6.96502 0.460693 6.72718V5.42988H1.32556V6.72718H4.35259V7.59205H1.32556ZM7.37961 8.67313L6.72015 8.11096C6.08592 7.57042 5.67691 7.17943 5.49313 6.93799C5.30934 6.69655 5.21745 6.4461 5.21745 6.18664C5.21745 5.86232 5.33277 5.58304 5.5634 5.3488C5.79403 5.11457 6.07511 4.99745 6.40664 4.99745C6.59403 4.99745 6.77241 5.04069 6.94177 5.12718C7.11114 5.21367 7.25709 5.33979 7.37961 5.50556C7.49493 5.33979 7.63727 5.21367 7.80664 5.12718C7.97601 5.04069 8.15799 4.99745 8.35259 4.99745C8.67691 4.99745 8.95619 5.11457 9.19042 5.3488C9.42466 5.58304 9.54177 5.86232 9.54177 6.18664C9.54177 6.4461 9.44808 6.69655 9.26069 6.93799C9.07331 7.17943 8.6625 7.57042 8.02826 8.11096L7.37961 8.67313ZM7.37961 7.52718L7.68232 7.27853C8.08592 6.93259 8.35259 6.68934 8.48232 6.5488C8.61205 6.40826 8.67691 6.28754 8.67691 6.18664C8.67691 6.10015 8.64448 6.02448 8.57961 5.95961C8.51475 5.89475 8.43907 5.86232 8.35259 5.86232C8.29493 5.86232 8.24268 5.87493 8.19583 5.90015C8.14898 5.92538 8.09313 5.96682 8.02826 6.02448L7.37961 6.64069L6.72015 6.02448C6.65529 5.96682 6.59943 5.92538 6.55259 5.90015C6.50574 5.87493 6.45709 5.86232 6.40664 5.86232C6.31295 5.86232 6.23547 5.89475 6.17421 5.95961C6.11295 6.02448 6.08231 6.10015 6.08231 6.18664C6.08231 6.28754 6.14538 6.40826 6.2715 6.5488C6.39763 6.68934 6.6625 6.93259 7.0661 7.27853L7.37961 7.52718ZM2.62286 6.29475C2.53637 6.29475 2.45889 6.27493 2.39042 6.23529C2.32195 6.19565 2.2697 6.13619 2.23367 6.05691L1.48772 4.56502H0.460693V3.70015H1.75799C1.83727 3.70015 1.91114 3.72178 1.97961 3.76502C2.04808 3.80826 2.10033 3.86592 2.13637 3.93799L2.62286 4.90015L3.9634 2.20826C3.99943 2.13619 4.05349 2.08214 4.12556 2.0461C4.19763 2.01006 4.27331 1.99205 4.35259 1.99205C4.43186 1.99205 4.50754 2.01006 4.57961 2.0461C4.65168 2.08214 4.70574 2.13619 4.74177 2.20826L5.47691 3.70015H6.94718V4.56502H5.21745C5.13096 4.56502 5.05349 4.5452 4.98502 4.50556C4.91655 4.46592 4.8643 4.40646 4.82826 4.32718L4.35259 3.37583L3.00123 6.05691C2.9652 6.13619 2.91295 6.19565 2.84448 6.23529C2.77601 6.27493 2.70213 6.29475 2.62286 6.29475Z" fill="#2075F6"/>
</svg>
