<svg width="4" height="9" viewBox="0 0 4 9" fill="none" xmlns="http://www.w3.org/2000/svg">
<path d="M2.00122 8.67313C1.44789 8.67313 0.976221 8.47813 0.586221 8.08813C0.196221 7.69813 0.0012207 7.22646 0.0012207 6.67313C0.0012207 6.35313 0.0712207 6.05479 0.211221 5.77813C0.351221 5.50146 0.547887 5.26646 0.801221 5.07313V1.87313C0.801221 1.53979 0.917887 1.25646 1.15122 1.02313C1.38455 0.789793 1.66789 0.673126 2.00122 0.673126C2.33455 0.673126 2.61789 0.789793 2.85122 1.02313C3.08455 1.25646 3.20122 1.53979 3.20122 1.87313V5.07313C3.45455 5.26646 3.65122 5.50146 3.79122 5.77813C3.93122 6.05479 4.00122 6.35313 4.00122 6.67313C4.00122 7.22646 3.80622 7.69813 3.41622 8.08813C3.02622 8.47813 2.55455 8.67313 2.00122 8.67313ZM1.60122 4.27313H2.40122V3.87313H2.00122V3.47313H2.40122V2.67313H2.00122V2.27313H2.40122V1.87313C2.40122 1.75979 2.36289 1.66479 2.28622 1.58813C2.20955 1.51146 2.11455 1.47313 2.00122 1.47313C1.88789 1.47313 1.79289 1.51146 1.71622 1.58813C1.63955 1.66479 1.60122 1.75979 1.60122 1.87313V4.27313Z" fill="#2075F6"/>
</svg>
