<svg width="14" height="14" viewBox="0 0 14 14" fill="none" xmlns="http://www.w3.org/2000/svg">
<path d="M1.33333 4.00546H10.6667V2.67213H1.33333V4.00546ZM1.33333 13.3388C0.966667 13.3388 0.652778 13.2082 0.391667 12.9471C0.130556 12.686 0 12.3721 0 12.0055V2.67213C0 2.30546 0.130556 1.99157 0.391667 1.73046C0.652778 1.46935 0.966667 1.3388 1.33333 1.3388H2V0.00546265H3.33333V1.3388H8.66667V0.00546265H10V1.3388H10.6667C11.0333 1.3388 11.3472 1.46935 11.6083 1.73046C11.8694 1.99157 12 2.30546 12 2.67213V6.45546C11.7889 6.35546 11.5722 6.27213 11.35 6.20546C11.1278 6.1388 10.9 6.0888 10.6667 6.05546V5.3388H1.33333V12.0055H5.53333C5.61111 12.2499 5.70278 12.4832 5.80833 12.7055C5.91389 12.9277 6.03889 13.1388 6.18333 13.3388H1.33333ZM10 14.0055C9.07778 14.0055 8.29167 13.6805 7.64167 13.0305C6.99167 12.3805 6.66667 11.5944 6.66667 10.6721C6.66667 9.74991 6.99167 8.9638 7.64167 8.3138C8.29167 7.6638 9.07778 7.3388 10 7.3388C10.9222 7.3388 11.7083 7.6638 12.3583 8.3138C13.0083 8.9638 13.3333 9.74991 13.3333 10.6721C13.3333 11.5944 13.0083 12.3805 12.3583 13.0305C11.7083 13.6805 10.9222 14.0055 10 14.0055ZM11.1167 12.2555L11.5833 11.7888L10.3333 10.5388V8.67213H9.66667V10.8055L11.1167 12.2555Z" fill="#2F2F2F"/>
</svg>
