<svg width="16" height="17" viewBox="0 0 16 17" fill="none" xmlns="http://www.w3.org/2000/svg">
<path d="M11.6 16.6719V14.2719H9.20002V12.6719H11.6V10.2719H13.2V12.6719H15.6V14.2719H13.2V16.6719H11.6ZM2.00002 15.0719C1.56002 15.0719 1.18336 14.9152 0.870024 14.6019C0.556691 14.2885 0.400024 13.9119 0.400024 13.4719V3.87188C0.400024 3.43187 0.556691 3.05521 0.870024 2.74188C1.18336 2.42854 1.56002 2.27188 2.00002 2.27188H2.80002V0.671875H4.40002V2.27188H9.20002V0.671875H10.8V2.27188H11.6C12.04 2.27188 12.4167 2.42854 12.73 2.74188C13.0434 3.05521 13.2 3.43187 13.2 3.87188V8.75188C12.9334 8.71187 12.6667 8.69188 12.4 8.69188C12.1334 8.69188 11.8667 8.71187 11.6 8.75188V7.07188H2.00002V13.4719H7.60002C7.60002 13.7385 7.62002 14.0052 7.66002 14.2719C7.70002 14.5385 7.77336 14.8052 7.88002 15.0719H2.00002Z" fill="white"/>
</svg>
