<svg width="9" height="9" viewBox="0 0 9 9" fill="none" xmlns="http://www.w3.org/2000/svg">
<path d="M0.799756 8.67188C0.579756 8.67188 0.391423 8.59354 0.234756 8.43688C0.0780892 8.28021 -0.000244141 8.09188 -0.000244141 7.87188V1.47188C-0.000244141 1.25187 0.0780892 1.06354 0.234756 0.906875C0.391423 0.750208 0.579756 0.671875 0.799756 0.671875H4.39976C4.61976 0.671875 4.80809 0.750208 4.96476 0.906875C5.12142 1.06354 5.19976 1.25187 5.19976 1.47188V7.87188C5.19976 8.09188 5.12142 8.28021 4.96476 8.43688C4.80809 8.59354 4.61976 8.67188 4.39976 8.67188H0.799756ZM0.799756 4.08188C0.919756 4.00854 1.04642 3.95521 1.17976 3.92188C1.31309 3.88854 1.45309 3.87188 1.59976 3.87188H3.59976C3.74642 3.87188 3.88642 3.88854 4.01976 3.92188C4.15309 3.95521 4.27976 4.00854 4.39976 4.08188V1.47188H0.799756V4.08188ZM2.59976 3.47187C2.37976 3.47187 2.19142 3.39354 2.03476 3.23688C1.87809 3.08021 1.79976 2.89188 1.79976 2.67188C1.79976 2.45187 1.87809 2.26354 2.03476 2.10688C2.19142 1.95021 2.37976 1.87188 2.59976 1.87188C2.81976 1.87188 3.00809 1.95021 3.16476 2.10688C3.32142 2.26354 3.39976 2.45187 3.39976 2.67188C3.39976 2.89188 3.32142 3.08021 3.16476 3.23688C3.00809 3.39354 2.81976 3.47187 2.59976 3.47187ZM6.99976 6.07188L6.43976 5.51188L6.86976 5.07188H5.59976V4.27188H6.86976L6.43976 3.83188L6.99976 3.27188L8.39976 4.67188L6.99976 6.07188ZM2.19976 7.47188H2.99976V6.67188H3.79976V5.87188H2.99976V5.07188H2.19976V5.87188H1.39976V6.67188H2.19976V7.47188Z" fill="#2075F6"/>
</svg>
