<svg width="10" height="14" viewBox="0 0 10 14" fill="none" xmlns="http://www.w3.org/2000/svg">
<path d="M4.99998 13.3386C3.8222 13.3386 2.86109 13.1524 2.11665 12.7802C1.3722 12.408 0.99998 11.9274 0.99998 11.3386C0.99998 11.0719 1.08054 10.8247 1.24165 10.5969C1.40276 10.3691 1.62776 10.1719 1.91665 10.0052L2.96665 10.9886C2.86665 11.033 2.75831 11.083 2.64165 11.1386C2.52498 11.1941 2.43331 11.2608 2.36665 11.3386C2.51109 11.5163 2.84442 11.6719 3.36665 11.8052C3.88887 11.9386 4.43331 12.0052 4.99998 12.0052C5.56665 12.0052 6.11387 11.9386 6.64165 11.8052C7.16942 11.6719 7.50554 11.5163 7.64998 11.3386C7.5722 11.2497 7.4722 11.1774 7.34998 11.1219C7.22776 11.0663 7.11109 11.0163 6.99998 10.9719L8.03331 9.97188C8.34442 10.1497 8.58331 10.3524 8.74998 10.5802C8.91665 10.808 8.99998 11.0608 8.99998 11.3386C8.99998 11.9274 8.62776 12.408 7.88331 12.7802C7.13887 13.1524 6.17776 13.3386 4.99998 13.3386ZM5.01665 9.67188C6.11665 8.86077 6.94442 8.04689 7.49998 7.23022C8.05553 6.41355 8.33331 5.59411 8.33331 4.77188C8.33331 3.63855 7.9722 2.783 7.24998 2.20522C6.52776 1.62744 5.77776 1.33855 4.99998 1.33855C4.2222 1.33855 3.4722 1.62744 2.74998 2.20522C2.02776 2.783 1.66665 3.63855 1.66665 4.77188C1.66665 5.51633 1.93887 6.29133 2.48331 7.09688C3.02776 7.90244 3.8722 8.76077 5.01665 9.67188ZM4.99998 11.3386C3.43331 10.183 2.26387 9.06077 1.49165 7.97188C0.719424 6.883 0.333313 5.81633 0.333313 4.77188C0.333313 3.983 0.47498 3.29133 0.758313 2.69688C1.04165 2.10244 1.40554 1.60522 1.84998 1.20522C2.29442 0.805219 2.79442 0.505219 3.34998 0.305218C3.90553 0.105219 4.45553 0.00521851 4.99998 0.00521851C5.54442 0.00521851 6.09442 0.105219 6.64998 0.305218C7.20553 0.505219 7.70553 0.805219 8.14998 1.20522C8.59442 1.60522 8.95831 2.10244 9.24165 2.69688C9.52498 3.29133 9.66665 3.983 9.66665 4.77188C9.66665 5.81633 9.28053 6.883 8.50831 7.97188C7.73609 9.06077 6.56665 10.183 4.99998 11.3386ZM4.99998 6.00522C5.36665 6.00522 5.68054 5.87466 5.94165 5.61355C6.20276 5.35244 6.33331 5.03855 6.33331 4.67189C6.33331 4.30522 6.20276 3.99133 5.94165 3.73022C5.68054 3.46911 5.36665 3.33855 4.99998 3.33855C4.63331 3.33855 4.31942 3.46911 4.05831 3.73022C3.7972 3.99133 3.66665 4.30522 3.66665 4.67189C3.66665 5.03855 3.7972 5.35244 4.05831 5.61355C4.31942 5.87466 4.63331 6.00522 4.99998 6.00522Z" fill="#1C1B1F"/>
</svg>
