<svg width="8" height="9" viewBox="0 0 8 9" fill="none" xmlns="http://www.w3.org/2000/svg">
<path d="M0.399756 0.671875H1.19976C1.31309 0.671875 1.40809 0.710208 1.48476 0.786875C1.56142 0.863542 1.59976 0.958542 1.59976 1.07188V8.67188C1.37976 8.67188 1.19142 8.59354 1.03476 8.43688C0.878089 8.28021 0.799756 8.09188 0.799756 7.87188V1.47188H0.399756C0.286423 1.47188 0.191423 1.43354 0.114756 1.35688C0.0380892 1.28021 -0.000244141 1.18521 -0.000244141 1.07188C-0.000244141 0.958542 0.0380892 0.863542 0.114756 0.786875C0.191423 0.710208 0.286423 0.671875 0.399756 0.671875ZM2.79976 8.67188C2.57976 8.67188 2.39142 8.59354 2.23476 8.43688C2.07809 8.28021 1.99976 8.09188 1.99976 7.87188V1.47188C1.99976 1.25187 2.07809 1.06354 2.23476 0.906875C2.39142 0.750208 2.57976 0.671875 2.79976 0.671875H6.39976C6.61976 0.671875 6.80809 0.750208 6.96476 0.906875C7.12142 1.06354 7.19976 1.25187 7.19976 1.47188V7.87188C7.19976 8.09188 7.12142 8.28021 6.96476 8.43688C6.80809 8.59354 6.61976 8.67188 6.39976 8.67188H2.79976ZM2.79976 4.08188C2.91976 4.00854 3.04642 3.95521 3.17976 3.92188C3.31309 3.88854 3.45309 3.87188 3.59976 3.87188H5.59976C5.74642 3.87188 5.88642 3.88854 6.01976 3.92188C6.15309 3.95521 6.27976 4.00854 6.39976 4.08188V1.47188H2.79976V4.08188ZM4.59976 3.47187C4.37976 3.47187 4.19142 3.39354 4.03476 3.23688C3.87809 3.08021 3.79976 2.89188 3.79976 2.67188C3.79976 2.45187 3.87809 2.26354 4.03476 2.10688C4.19142 1.95021 4.37976 1.87188 4.59976 1.87188C4.81976 1.87188 5.00809 1.95021 5.16476 2.10688C5.32142 2.26354 5.39976 2.45187 5.39976 2.67188C5.39976 2.89188 5.32142 3.08021 5.16476 3.23688C5.00809 3.39354 4.81976 3.47187 4.59976 3.47187ZM4.19976 7.47188H4.99976V6.67188H5.79976V5.87188H4.99976V5.07188H4.19976V5.87188H3.39976V6.67188H4.19976V7.47188Z" fill="#2075F6"/>
</svg>
