<svg width="8" height="9" viewBox="0 0 8 9" fill="none" xmlns="http://www.w3.org/2000/svg">
<path d="M2.59976 3.47187C2.37976 3.47187 2.19142 3.39354 2.03476 3.23688C1.87809 3.08021 1.79976 2.89188 1.79976 2.67188C1.79976 2.45187 1.87809 2.26354 2.03476 2.10688C2.19142 1.95021 2.37976 1.87188 2.59976 1.87188C2.81976 1.87188 3.00809 1.95021 3.16476 2.10688C3.32142 2.26354 3.39976 2.45187 3.39976 2.67188C3.39976 2.89188 3.32142 3.08021 3.16476 3.23688C3.00809 3.39354 2.81976 3.47187 2.59976 3.47187ZM5.59976 8.67188C5.04642 8.67188 4.57476 8.47688 4.18476 8.08688C3.79476 7.69688 3.59976 7.22521 3.59976 6.67188C3.59976 6.11854 3.79476 5.64688 4.18476 5.25688C4.57476 4.86688 5.04642 4.67188 5.59976 4.67188C6.15309 4.67188 6.62476 4.86688 7.01476 5.25688C7.40476 5.64688 7.59976 6.11854 7.59976 6.67188C7.59976 7.22521 7.40476 7.69688 7.01476 8.08688C6.62476 8.47688 6.15309 8.67188 5.59976 8.67188ZM6.26976 7.62188L6.54976 7.34188L5.79976 6.59188V5.47188H5.39976V6.75187L6.26976 7.62188ZM0.799756 8.67188C0.579756 8.67188 0.391423 8.59354 0.234756 8.43688C0.0780892 8.28021 -0.000244141 8.09188 -0.000244141 7.87188V1.47188C-0.000244141 1.25187 0.0780892 1.06354 0.234756 0.906875C0.391423 0.750208 0.579756 0.671875 0.799756 0.671875H4.39976C4.61976 0.671875 4.80809 0.750208 4.96476 0.906875C5.12142 1.06354 5.19976 1.25187 5.19976 1.47188V3.90188C5.05309 3.92188 4.91309 3.95354 4.77976 3.99688C4.64642 4.04021 4.51976 4.08854 4.39976 4.14188V1.47188H0.799756V4.08188C0.919756 4.00854 1.04642 3.95521 1.17976 3.92188C1.31309 3.88854 1.45309 3.87188 1.59976 3.87188H4.45976V4.11188C4.11976 4.26521 3.82476 4.47188 3.57476 4.73188C3.32476 4.99188 3.13309 5.29188 2.99976 5.63188V5.07188H2.19976V5.87188H1.39976V6.67188H2.19976V7.47188H2.91976C2.98642 7.70521 3.07976 7.92521 3.19976 8.13188C3.31976 8.33854 3.46642 8.51854 3.63976 8.67188H0.799756Z" fill="#2075F6"/>
</svg>
