<svg width="14" height="14" viewBox="0 0 14 14" fill="none" xmlns="http://www.w3.org/2000/svg">
<path d="M2.89998 10.0719C3.46665 9.63855 4.09998 9.29688 4.79998 9.04688C5.49998 8.79688 6.23331 8.67188 6.99998 8.67188C7.76665 8.67188 8.49998 8.79688 9.19998 9.04688C9.89998 9.29688 10.5333 9.63855 11.1 10.0719C11.4889 9.61633 11.7916 9.09966 12.0083 8.52188C12.225 7.94411 12.3333 7.32744 12.3333 6.67188C12.3333 5.19411 11.8139 3.93577 10.775 2.89689C9.73609 1.858 8.47776 1.33855 6.99998 1.33855C5.5222 1.33855 4.26387 1.858 3.22498 2.89689C2.18609 3.93577 1.66665 5.19411 1.66665 6.67188C1.66665 7.32744 1.77498 7.94411 1.99165 8.52188C2.20831 9.09966 2.51109 9.61633 2.89998 10.0719ZM6.99998 7.33855C6.34442 7.33855 5.79165 7.11355 5.34165 6.66355C4.89165 6.21355 4.66665 5.66077 4.66665 5.00522C4.66665 4.34966 4.89165 3.79689 5.34165 3.34689C5.79165 2.89689 6.34442 2.67189 6.99998 2.67189C7.65553 2.67189 8.20831 2.89689 8.65831 3.34689C9.10831 3.79689 9.33331 4.34966 9.33331 5.00522C9.33331 5.66077 9.10831 6.21355 8.65831 6.66355C8.20831 7.11355 7.65553 7.33855 6.99998 7.33855ZM6.99998 13.3386C6.07776 13.3386 5.21109 13.1636 4.39998 12.8136C3.58887 12.4636 2.88331 11.9886 2.28331 11.3886C1.68331 10.7886 1.20831 10.083 0.858313 9.27188C0.508313 8.46077 0.333313 7.59411 0.333313 6.67188C0.333313 5.74966 0.508313 4.883 0.858313 4.07188C1.20831 3.26077 1.68331 2.55522 2.28331 1.95522C2.88331 1.35522 3.58887 0.880219 4.39998 0.530218C5.21109 0.180218 6.07776 0.00521851 6.99998 0.00521851C7.9222 0.00521851 8.78887 0.180218 9.59998 0.530218C10.4111 0.880219 11.1166 1.35522 11.7166 1.95522C12.3166 2.55522 12.7916 3.26077 13.1416 4.07188C13.4916 4.883 13.6666 5.74966 13.6666 6.67188C13.6666 7.59411 13.4916 8.46077 13.1416 9.27188C12.7916 10.083 12.3166 10.7886 11.7166 11.3886C11.1166 11.9886 10.4111 12.4636 9.59998 12.8136C8.78887 13.1636 7.9222 13.3386 6.99998 13.3386Z" fill="#2F2F2F"/>
</svg>
